<svg width="192" height="192" viewBox="0 0 192 192" fill="none" xmlns="http://www.w3.org/2000/svg">
  <rect width="192" height="192" rx="32" fill="#1e293b"/>
  <path d="M96 48C75.2 48 58 65.2 58 86C58 106.8 75.2 124 96 124C116.8 124 134 106.8 134 86C134 65.2 116.8 48 96 48ZM96 112C82 112 70 100 70 86C70 72 82 60 96 60C110 60 122 72 122 86C122 100 110 112 96 112Z" fill="#3b82f6"/>
  <rect x="48" y="130" width="96" height="14" rx="7" fill="#3b82f6"/>
  <circle cx="72" cy="86" r="8" fill="#60a5fa"/>
  <circle cx="120" cy="86" r="8" fill="#60a5fa"/>
</svg>
